<?xml version="1.0" standalone="no"?>
<!DOCTYPE svg PUBLIC "-//W3C//DTD SVG 20010904//EN"
 "http://www.w3.org/TR/2001/REC-SVG-20010904/DTD/svg10.dtd">
<svg version="1.0" xmlns="http://www.w3.org/2000/svg"
 width="300.000000pt" height="300.000000pt" viewBox="0 0 300.000000 300.000000"
 preserveAspectRatio="xMidYMid meet">
<metadata>
Created by potrace 1.11, written by Peter Selinger 2001-2013
</metadata>
<g transform="translate(0.000000,300.000000) scale(0.100000,-0.100000)"
fill="#000000" stroke="none">
<path d="M705 2539 l105 -181 0 -835 0 -835 -105 -175 c-58 -96 -105 -178
-105 -184 0 -5 202 -9 517 -9 l518 0 -188 188 -187 187 0 378 0 377 465 0 465
0 0 80 0 80 -465 0 -465 0 2 493 3 492 296 3 297 2 193 -295 c131 -199 200
-295 212 -295 16 0 17 24 17 355 l0 355 -840 0 -839 0 104 -181z"/>
</g>
</svg>
