<svg width="595" height="842" viewBox="0 0 595 842" fill="none" xmlns="http://www.w3.org/2000/svg">
<path d="M107.903 804.8V794.528H110.08L111.987 799.765C112.095 800.057 112.205 800.392 112.317 800.769C112.429 801.147 112.533 801.513 112.627 801.868C112.726 802.223 112.805 802.517 112.863 802.751C112.926 802.98 112.957 803.095 112.957 803.095H112.991C112.991 803.095 113.02 802.98 113.079 802.751C113.142 802.522 113.223 802.23 113.321 801.875C113.42 801.515 113.526 801.147 113.638 800.769C113.75 800.392 113.858 800.057 113.962 799.765L115.835 794.528H118.066V804.8H116.496V799.017C116.496 798.761 116.5 798.469 116.509 798.141C116.523 797.808 116.536 797.487 116.55 797.177C116.563 796.863 116.574 796.604 116.583 796.402C116.592 796.2 116.597 796.099 116.597 796.099H116.57C116.57 796.099 116.547 796.191 116.503 796.375C116.458 796.559 116.397 796.793 116.321 797.076C116.249 797.355 116.17 797.642 116.085 797.939C115.999 798.235 115.916 798.498 115.835 798.727L113.611 804.8H112.283L110.066 798.727C109.985 798.498 109.902 798.235 109.817 797.939C109.731 797.642 109.65 797.355 109.574 797.076C109.498 796.793 109.435 796.559 109.385 796.375C109.34 796.191 109.318 796.099 109.318 796.099H109.291C109.291 796.099 109.295 796.2 109.304 796.402C109.318 796.604 109.331 796.863 109.345 797.177C109.358 797.487 109.37 797.808 109.379 798.141C109.388 798.469 109.392 798.761 109.392 799.017V804.8H107.903ZM122.11 804.962C121.643 804.962 121.218 804.883 120.836 804.726C120.454 804.564 120.151 804.324 119.926 804.005C119.706 803.685 119.596 803.29 119.596 802.818C119.596 802.252 119.726 801.819 119.987 801.518C120.252 801.212 120.616 800.987 121.079 800.844C121.546 800.7 122.085 800.59 122.696 800.513C123.083 800.468 123.411 800.412 123.68 800.345C123.95 800.277 124.157 800.176 124.3 800.042C124.444 799.902 124.516 799.716 124.516 799.482C124.516 799.118 124.39 798.831 124.139 798.619C123.892 798.404 123.532 798.296 123.06 798.296C122.521 798.296 122.117 798.415 121.847 798.653C121.582 798.887 121.438 799.206 121.416 799.61H119.967C119.989 799.188 120.113 798.797 120.337 798.437C120.567 798.074 120.904 797.781 121.348 797.561C121.798 797.337 122.364 797.224 123.047 797.224C123.429 797.224 123.777 797.256 124.092 797.319C124.406 797.382 124.682 797.485 124.921 797.629C125.249 797.822 125.5 798.091 125.675 798.437C125.855 798.779 125.945 799.197 125.945 799.691V802.987C125.945 803.247 125.983 803.445 126.06 803.58C126.136 803.715 126.271 803.782 126.464 803.782C126.509 803.782 126.552 803.78 126.592 803.775C126.637 803.766 126.675 803.755 126.707 803.742H126.747V804.793C126.653 804.82 126.538 804.847 126.403 804.874C126.273 804.901 126.12 804.914 125.945 804.914C125.671 804.914 125.428 804.86 125.217 804.753C125.006 804.645 124.842 804.476 124.725 804.247C124.608 804.018 124.55 803.721 124.55 803.357V803.236L124.712 803.748H124.563C124.343 804.076 124.033 804.362 123.633 804.604C123.238 804.842 122.73 804.962 122.11 804.962ZM122.528 803.89C122.977 803.89 123.35 803.798 123.647 803.614C123.943 803.429 124.166 803.2 124.314 802.926C124.462 802.648 124.536 802.369 124.536 802.09V800.945C124.424 801.017 124.282 801.084 124.112 801.147C123.945 801.21 123.766 801.266 123.573 801.315C123.384 801.365 123.195 801.407 123.006 801.443C122.625 801.511 122.294 801.592 122.016 801.686C121.742 801.776 121.528 801.906 121.375 802.077C121.227 802.243 121.153 802.481 121.153 802.791C121.153 803.079 121.218 803.304 121.348 803.465C121.479 803.623 121.649 803.733 121.861 803.796C122.072 803.858 122.294 803.89 122.528 803.89ZM130.636 804.995C129.948 804.995 129.36 804.892 128.87 804.685C128.38 804.479 127.998 804.191 127.724 803.823C127.455 803.45 127.302 803.014 127.266 802.515H128.762C128.834 803.005 129.041 803.351 129.382 803.553C129.728 803.755 130.153 803.856 130.656 803.856C131.191 803.856 131.582 803.753 131.829 803.546C132.08 803.34 132.206 803.081 132.206 802.771C132.206 802.515 132.132 802.317 131.984 802.178C131.836 802.034 131.62 801.92 131.337 801.834C131.054 801.749 130.706 801.666 130.292 801.585C129.942 801.509 129.602 801.425 129.274 801.336C128.946 801.246 128.652 801.124 128.392 800.972C128.135 800.814 127.933 800.605 127.785 800.345C127.637 800.084 127.563 799.747 127.563 799.334C127.563 798.885 127.677 798.503 127.906 798.188C128.135 797.869 128.459 797.626 128.877 797.46C129.299 797.289 129.798 797.204 130.373 797.204C131.011 797.204 131.543 797.294 131.97 797.474C132.402 797.653 132.734 797.905 132.968 798.229C133.206 798.552 133.352 798.927 133.406 799.354H131.937C131.896 799.12 131.813 798.925 131.687 798.768C131.561 798.606 131.388 798.485 131.168 798.404C130.948 798.318 130.676 798.276 130.353 798.276C129.899 798.276 129.562 798.368 129.342 798.552C129.122 798.736 129.012 798.965 129.012 799.239C129.012 799.473 129.09 799.655 129.247 799.785C129.405 799.911 129.625 800.012 129.908 800.089C130.196 800.161 130.539 800.237 130.939 800.318C131.299 800.385 131.642 800.466 131.97 800.56C132.303 800.65 132.597 800.778 132.853 800.945C133.114 801.106 133.321 801.327 133.473 801.605C133.626 801.884 133.702 802.243 133.702 802.684C133.702 803.191 133.57 803.618 133.305 803.964C133.044 804.306 132.683 804.564 132.22 804.739C131.757 804.91 131.229 804.995 130.636 804.995ZM137.403 804.86C137.039 804.86 136.717 804.809 136.439 804.705C136.16 804.602 135.942 804.434 135.785 804.2C135.632 803.962 135.556 803.643 135.556 803.243V798.491H134.403V797.386H135.556V795.047H137.052V797.386H138.562V798.491H137.052V802.899C137.052 803.173 137.122 803.357 137.261 803.452C137.4 803.546 137.591 803.593 137.834 803.593C137.933 803.593 138.041 803.584 138.157 803.566C138.274 803.548 138.369 803.533 138.441 803.519H138.494V804.746C138.342 804.777 138.171 804.804 137.982 804.827C137.798 804.849 137.605 804.86 137.403 804.86ZM143.084 804.995C142.316 804.995 141.655 804.822 141.103 804.476C140.555 804.126 140.134 803.656 139.842 803.068C139.55 802.479 139.404 801.821 139.404 801.093C139.404 800.37 139.555 799.716 139.856 799.132C140.157 798.543 140.577 798.076 141.116 797.73C141.66 797.379 142.289 797.204 143.003 797.204C143.552 797.204 144.037 797.301 144.459 797.494C144.882 797.687 145.243 797.954 145.544 798.296C145.877 798.669 146.124 799.127 146.286 799.671C146.447 800.21 146.528 800.805 146.528 801.457H140.928C140.963 801.911 141.069 802.315 141.244 802.67C141.42 803.021 141.662 803.297 141.972 803.499C142.282 803.701 142.66 803.802 143.104 803.802C143.567 803.802 143.951 803.703 144.257 803.506C144.567 803.304 144.78 803.029 144.897 802.684H146.373C146.265 803.133 146.063 803.533 145.767 803.883C145.47 804.229 145.095 804.501 144.641 804.699C144.192 804.896 143.673 804.995 143.084 804.995ZM140.948 800.446H144.938C144.915 800.006 144.825 799.628 144.668 799.314C144.511 798.999 144.291 798.759 144.008 798.592C143.729 798.422 143.394 798.336 143.003 798.336C142.585 798.336 142.235 798.428 141.952 798.613C141.669 798.792 141.444 799.04 141.278 799.354C141.112 799.669 141.002 800.033 140.948 800.446ZM147.809 804.8V797.386H149.298V798.721H149.339C149.568 798.271 149.864 797.921 150.228 797.669C150.592 797.413 151.015 797.285 151.495 797.285C151.603 797.285 151.691 797.292 151.758 797.305C151.83 797.314 151.9 797.332 151.967 797.359V798.754H151.92C151.835 798.732 151.754 798.716 151.677 798.707C151.606 798.698 151.518 798.694 151.415 798.694C151.123 798.694 150.851 798.745 150.599 798.849C150.352 798.947 150.132 799.093 149.939 799.287C149.75 799.475 149.602 799.707 149.494 799.981C149.386 800.255 149.332 800.569 149.332 800.924V804.8H147.809ZM110.612 818.8L107.107 808.528H108.866L110.929 814.871C110.996 815.086 111.066 815.331 111.138 815.605C111.214 815.875 111.284 816.14 111.347 816.4C111.41 816.657 111.461 816.87 111.502 817.041C111.542 817.207 111.562 817.29 111.562 817.29H111.589C111.589 817.29 111.607 817.205 111.643 817.034C111.684 816.863 111.733 816.65 111.791 816.394C111.854 816.133 111.922 815.866 111.994 815.592C112.07 815.318 112.14 815.077 112.203 814.871L114.238 808.528H115.943L112.405 818.8H110.612ZM116.988 818.8V811.386H118.511V818.8H116.988ZM116.968 810.105V808.508H118.538V810.105H116.968ZM123.101 818.995C122.413 818.995 121.825 818.892 121.335 818.685C120.845 818.479 120.463 818.191 120.189 817.823C119.92 817.45 119.767 817.014 119.731 816.515H121.227C121.299 817.005 121.506 817.351 121.847 817.553C122.193 817.755 122.618 817.856 123.121 817.856C123.656 817.856 124.047 817.753 124.294 817.546C124.545 817.34 124.671 817.081 124.671 816.771C124.671 816.515 124.597 816.317 124.449 816.178C124.3 816.034 124.085 815.92 123.802 815.834C123.519 815.749 123.17 815.666 122.757 815.585C122.407 815.509 122.067 815.425 121.739 815.336C121.411 815.246 121.117 815.124 120.856 814.972C120.6 814.814 120.398 814.605 120.25 814.345C120.102 814.084 120.027 813.747 120.027 813.334C120.027 812.885 120.142 812.503 120.371 812.188C120.6 811.869 120.924 811.626 121.342 811.46C121.764 811.289 122.263 811.204 122.838 811.204C123.476 811.204 124.008 811.294 124.435 811.474C124.867 811.653 125.199 811.905 125.433 812.229C125.671 812.552 125.817 812.927 125.871 813.354H124.402C124.361 813.12 124.278 812.925 124.152 812.768C124.026 812.606 123.853 812.485 123.633 812.404C123.413 812.318 123.141 812.276 122.818 812.276C122.364 812.276 122.027 812.368 121.807 812.552C121.587 812.736 121.476 812.965 121.476 813.239C121.476 813.473 121.555 813.655 121.712 813.785C121.87 813.911 122.09 814.012 122.373 814.089C122.66 814.161 123.004 814.237 123.404 814.318C123.764 814.385 124.107 814.466 124.435 814.56C124.768 814.65 125.062 814.778 125.318 814.945C125.579 815.106 125.785 815.327 125.938 815.605C126.091 815.884 126.167 816.243 126.167 816.684C126.167 817.191 126.035 817.618 125.77 817.964C125.509 818.306 125.147 818.564 124.685 818.739C124.222 818.91 123.694 818.995 123.101 818.995ZM132.125 819.002C131.388 819.002 130.719 818.872 130.117 818.611C129.519 818.346 129.005 817.975 128.573 817.499C128.147 817.018 127.816 816.452 127.583 815.801C127.354 815.149 127.239 814.439 127.239 813.671C127.239 812.916 127.351 812.215 127.576 811.568C127.801 810.921 128.126 810.357 128.553 809.876C128.98 809.391 129.497 809.014 130.103 808.744C130.71 808.474 131.393 808.34 132.152 808.34C132.745 808.34 133.282 808.418 133.763 808.576C134.244 808.728 134.657 808.942 135.003 809.216C135.394 809.526 135.704 809.897 135.933 810.328C136.167 810.755 136.317 811.222 136.385 811.73H134.734C134.662 811.339 134.513 810.997 134.289 810.705C134.069 810.409 133.777 810.177 133.413 810.011C133.049 809.84 132.622 809.755 132.132 809.755C131.445 809.755 130.861 809.926 130.38 810.267C129.903 810.609 129.542 811.076 129.295 811.669C129.052 812.258 128.931 812.925 128.931 813.671C128.931 814.444 129.063 815.124 129.328 815.713C129.593 816.297 129.966 816.755 130.447 817.088C130.932 817.416 131.499 817.58 132.146 817.58C132.716 817.58 133.192 817.468 133.574 817.243C133.956 817.014 134.251 816.71 134.457 816.333C134.668 815.956 134.794 815.542 134.835 815.093H136.493C136.479 815.601 136.365 816.104 136.149 816.603C135.933 817.097 135.637 817.526 135.259 817.89C134.877 818.272 134.424 818.553 133.898 818.732C133.377 818.912 132.786 819.002 132.125 819.002ZM141.224 819.002C140.474 819.002 139.82 818.829 139.263 818.483C138.71 818.133 138.283 817.663 137.982 817.074C137.681 816.481 137.531 815.821 137.531 815.093C137.531 814.37 137.681 813.716 137.982 813.132C138.283 812.543 138.71 812.076 139.263 811.73C139.82 811.379 140.474 811.204 141.224 811.204C141.979 811.204 142.63 811.379 143.179 811.73C143.731 812.076 144.156 812.543 144.452 813.132C144.749 813.716 144.897 814.37 144.897 815.093C144.897 815.821 144.749 816.481 144.452 817.074C144.156 817.663 143.731 818.133 143.179 818.483C142.63 818.829 141.979 819.002 141.224 819.002ZM141.211 817.809C141.678 817.809 142.071 817.69 142.39 817.452C142.709 817.214 142.949 816.89 143.111 816.481C143.273 816.072 143.354 815.61 143.354 815.093C143.354 814.576 143.273 814.113 143.111 813.705C142.949 813.291 142.709 812.965 142.39 812.727C142.071 812.485 141.678 812.363 141.211 812.363C140.743 812.363 140.35 812.485 140.031 812.727C139.712 812.965 139.472 813.291 139.31 813.705C139.148 814.113 139.067 814.576 139.067 815.093C139.067 815.61 139.148 816.072 139.31 816.481C139.472 816.89 139.712 817.214 140.031 817.452C140.35 817.69 140.743 817.809 141.211 817.809ZM146.171 818.8V811.386H147.661V812.505H147.708C147.865 812.231 148.051 811.997 148.267 811.804C148.487 811.606 148.734 811.458 149.009 811.359C149.287 811.256 149.588 811.204 149.912 811.204C150.37 811.204 150.768 811.321 151.105 811.555C151.446 811.788 151.698 812.132 151.859 812.586H151.886C152.165 812.114 152.506 811.766 152.911 811.541C153.315 811.316 153.744 811.204 154.198 811.204C154.674 811.204 155.088 811.303 155.438 811.501C155.789 811.698 156.058 811.984 156.247 812.357C156.44 812.725 156.537 813.172 156.537 813.698V818.8H155.02V813.873C155.02 813.433 154.899 813.089 154.656 812.842C154.418 812.59 154.115 812.464 153.747 812.464C153.45 812.464 153.178 812.545 152.931 812.707C152.684 812.864 152.486 813.082 152.338 813.361C152.194 813.639 152.122 813.958 152.122 814.318V818.8H150.606V813.873C150.606 813.433 150.496 813.089 150.276 812.842C150.06 812.59 149.763 812.464 149.386 812.464C149.107 812.464 148.838 812.545 148.577 812.707C148.317 812.864 148.105 813.082 147.944 813.361C147.782 813.639 147.701 813.958 147.701 814.318V818.8H146.171Z" fill="white"/>
<path d="M39.1954 804.995C38.2474 804.995 37.4498 804.845 36.8028 804.544C36.1558 804.238 35.6593 803.823 35.3133 803.297C34.9718 802.767 34.7831 802.165 34.7472 801.491H36.3984C36.4523 801.967 36.5916 802.367 36.8163 802.69C37.0454 803.014 37.3599 803.259 37.7598 803.425C38.1642 803.587 38.6517 803.668 39.2224 803.668C39.6402 803.668 40.0154 803.609 40.3479 803.492C40.6804 803.371 40.9433 803.187 41.1365 802.94C41.3297 802.692 41.4263 802.382 41.4263 802.01C41.4263 801.601 41.3095 801.282 41.0758 801.052C40.8467 800.823 40.5187 800.644 40.0918 800.513C39.6694 800.379 39.1685 800.246 38.5888 800.116C38.126 800.017 37.6857 799.9 37.2678 799.765C36.8545 799.63 36.4883 799.457 36.1693 799.246C35.8547 799.035 35.6054 798.763 35.4211 798.431C35.2414 798.098 35.1515 797.68 35.1515 797.177C35.1515 796.566 35.3088 796.052 35.6233 795.634C35.9379 795.211 36.3692 794.892 36.9174 794.677C37.47 794.456 38.1058 794.346 38.8247 794.346C39.4403 794.346 39.9817 794.418 40.449 794.562C40.9163 794.701 41.3117 794.906 41.6352 795.175C41.9587 795.445 42.2126 795.764 42.3968 796.132C42.5855 796.501 42.7091 796.914 42.7675 797.373H41.15C41.0691 796.811 40.8264 796.38 40.4221 796.079C40.0222 795.777 39.4875 795.627 38.818 795.627C38.1979 795.627 37.6969 795.753 37.315 796.004C36.9376 796.252 36.7489 796.606 36.7489 797.069C36.7489 797.411 36.859 797.683 37.0791 797.885C37.2993 798.082 37.6048 798.242 37.9957 798.363C38.3911 798.48 38.8494 798.595 39.3707 798.707C39.8604 798.81 40.3277 798.932 40.7725 799.071C41.2174 799.206 41.615 799.388 41.9655 799.617C42.3159 799.842 42.5923 800.138 42.7945 800.507C42.9967 800.875 43.0978 801.342 43.0978 801.908C43.0978 802.569 42.9293 803.131 42.5923 803.593C42.2553 804.052 41.7925 804.4 41.2039 804.638C40.6153 804.876 39.9458 804.995 39.1954 804.995ZM47.0338 804.86C46.6698 804.86 46.3486 804.809 46.07 804.705C45.7914 804.602 45.5735 804.434 45.4162 804.2C45.2635 803.962 45.1871 803.643 45.1871 803.243V798.491H44.0346V797.386H45.1871V795.047H46.6833V797.386H48.193V798.491H46.6833V802.899C46.6833 803.173 46.753 803.357 46.8922 803.452C47.0315 803.546 47.2225 803.593 47.4651 803.593C47.564 803.593 47.6718 803.584 47.7886 803.566C47.9055 803.548 47.9998 803.533 48.0717 803.519H48.1256V804.746C47.9729 804.777 47.8021 804.804 47.6134 804.827C47.4292 804.849 47.236 804.86 47.0338 804.86ZM51.9471 804.982C51.4214 804.982 50.9676 804.878 50.5857 804.672C50.2082 804.465 49.9162 804.173 49.7095 803.796C49.5073 803.414 49.4062 802.962 49.4062 802.441V797.386H50.9294V802.279C50.9294 802.733 51.0597 803.088 51.3203 803.344C51.5809 803.596 51.9516 803.721 52.4324 803.721C52.7873 803.721 53.0951 803.638 53.3557 803.472C53.6163 803.301 53.8185 803.074 53.9623 802.791C54.1061 802.504 54.178 802.18 54.178 801.821V797.386H55.6944V804.8H54.2117V803.755H54.178C54.0027 804.011 53.8095 804.231 53.5983 804.416C53.3872 804.595 53.1468 804.735 52.8772 804.834C52.6076 804.932 52.2976 804.982 51.9471 804.982ZM60.237 804.995C59.581 804.995 59.0104 804.838 58.5251 804.523C58.0399 804.204 57.6647 803.753 57.3996 803.169C57.1345 802.58 57.0019 801.886 57.0019 801.086C57.0019 800.291 57.1412 799.601 57.4198 799.017C57.6984 798.433 58.0803 797.984 58.5656 797.669C59.0553 797.35 59.608 797.191 60.2235 797.191C60.5695 797.191 60.8863 797.245 61.1739 797.352C61.4659 797.456 61.7243 797.604 61.9489 797.797C62.1736 797.986 62.3668 798.213 62.5285 798.478H62.5555C62.542 798.294 62.5308 798.071 62.5218 797.811C62.5128 797.55 62.5083 797.287 62.5083 797.022V794.528H64.0248V804.8H62.542V803.701H62.5151C62.2859 804.115 61.9759 804.434 61.585 804.658C61.1986 804.883 60.7492 804.995 60.237 804.995ZM60.4594 803.755C60.9402 803.755 61.3356 803.641 61.6456 803.411C61.9602 803.182 62.1938 802.868 62.3466 802.468C62.4993 802.068 62.5757 801.61 62.5757 801.093C62.5757 800.572 62.4971 800.109 62.3398 799.705C62.1826 799.3 61.9467 798.983 61.6322 798.754C61.3176 798.525 60.9267 798.41 60.4594 798.41C60.0371 798.41 59.6821 798.527 59.3945 798.761C59.1115 798.995 58.8981 799.314 58.7543 799.718C58.615 800.118 58.5453 800.576 58.5453 801.093C58.5453 801.61 58.615 802.068 58.7543 802.468C58.8981 802.868 59.1115 803.182 59.3945 803.411C59.6821 803.641 60.0371 803.755 60.4594 803.755ZM65.7097 804.8V797.386H67.2329V804.8H65.7097ZM65.6895 796.105V794.508H67.2599V796.105H65.6895ZM72.2338 805.002C71.4835 805.002 70.8297 804.829 70.2726 804.483C69.7199 804.133 69.293 803.663 68.992 803.074C68.691 802.481 68.5404 801.821 68.5404 801.093C68.5404 800.37 68.691 799.716 68.992 799.132C69.293 798.543 69.7199 798.076 70.2726 797.73C70.8297 797.379 71.4835 797.204 72.2338 797.204C72.9887 797.204 73.6402 797.379 74.1884 797.73C74.741 798.076 75.1656 798.543 75.4622 799.132C75.7587 799.716 75.907 800.37 75.907 801.093C75.907 801.821 75.7587 802.481 75.4622 803.074C75.1656 803.663 74.741 804.133 74.1884 804.483C73.6402 804.829 72.9887 805.002 72.2338 805.002ZM72.2204 803.809C72.6876 803.809 73.0808 803.69 73.3998 803.452C73.7188 803.214 73.9592 802.89 74.121 802.481C74.2827 802.072 74.3636 801.61 74.3636 801.093C74.3636 800.576 74.2827 800.113 74.121 799.705C73.9592 799.291 73.7188 798.965 73.3998 798.727C73.0808 798.485 72.6876 798.363 72.2204 798.363C71.7531 798.363 71.3599 798.485 71.0409 798.727C70.7219 798.965 70.4815 799.291 70.3197 799.705C70.158 800.113 70.0771 800.576 70.0771 801.093C70.0771 801.61 70.158 802.072 70.3197 802.481C70.4815 802.89 70.7219 803.214 71.0409 803.452C71.3599 803.69 71.7531 803.809 72.2204 803.809ZM85.3023 804.8V802.454H80.5777V801.052L85.4573 794.919H86.8255V801.255H88.3958V802.454H86.8255V804.8H85.3023ZM81.7706 801.315C81.7706 801.315 81.8515 801.311 82.0133 801.302C82.1795 801.293 82.375 801.284 82.5996 801.275C82.8243 801.261 83.031 801.255 83.2197 801.255H85.3023V798.229C85.3023 798.049 85.3068 797.844 85.3158 797.615C85.3292 797.386 85.3405 797.188 85.3495 797.022C85.3629 796.851 85.3697 796.766 85.3697 796.766H85.3427C85.3427 796.766 85.2955 796.84 85.2012 796.988C85.1068 797.132 84.99 797.307 84.8507 797.514C84.7114 797.716 84.5721 797.903 84.4328 798.074L82.8355 800.068C82.7052 800.23 82.5569 800.408 82.3907 800.601C82.2244 800.79 82.0784 800.951 81.9526 801.086C81.8313 801.221 81.7706 801.288 81.7706 801.288V801.315ZM35.3537 818.8V808.528H42.7608V809.964H37.0117V812.788H42.1542V814.143H37.0117V817.324H42.9023V818.8H35.3537ZM43.8122 818.8L46.5553 814.924L44.1155 811.386H45.8678L46.7979 812.822C46.8878 812.961 46.9821 813.123 47.081 813.307C47.1843 813.491 47.2697 813.651 47.3371 813.785C47.4045 813.92 47.4382 813.988 47.4382 813.988H47.4651C47.4651 813.988 47.5011 813.92 47.573 813.785C47.6449 813.651 47.7302 813.491 47.8291 813.307C47.9324 813.123 48.0268 812.961 48.1122 812.822L49.0625 811.386H50.7002L48.3211 814.817L51.1114 818.8H49.3455L48.1526 817.007C48.0537 816.854 47.9481 816.679 47.8358 816.481C47.7235 816.284 47.6291 816.113 47.5527 815.969C47.4764 815.825 47.4382 815.753 47.4382 815.753H47.4112C47.4112 815.753 47.3708 815.825 47.2899 815.969C47.2135 816.113 47.1192 816.284 47.0068 816.481C46.899 816.679 46.7956 816.854 46.6968 817.007L45.4971 818.8H43.8122ZM52.2032 818.8V808.528H53.7264V811.258C53.7264 811.402 53.7219 811.593 53.7129 811.831C53.7039 812.065 53.6949 812.28 53.686 812.478H53.7331C53.9084 812.213 54.1083 811.988 54.333 811.804C54.5576 811.615 54.8137 811.471 55.1013 811.373C55.3889 811.274 55.7101 811.224 56.0651 811.224C56.5863 811.224 57.0334 811.323 57.4063 811.521C57.7792 811.719 58.0668 812.004 58.269 812.377C58.4712 812.745 58.5723 813.19 58.5723 813.711V818.8H57.0693V813.94C57.0693 813.482 56.9345 813.125 56.6649 812.869C56.3998 812.613 56.0269 812.485 55.5461 812.485C55.1912 812.485 54.8766 812.566 54.6026 812.727C54.3285 812.885 54.1128 813.107 53.9555 813.394C53.8028 813.682 53.7264 814.012 53.7264 814.385V818.8H52.2032ZM60.2101 818.8V811.386H61.7333V818.8H60.2101ZM60.1898 810.105V808.508H61.7602V810.105H60.1898ZM67.2464 818.995C66.7477 818.995 66.2961 818.887 65.8917 818.672C65.4918 818.456 65.1773 818.137 64.9481 817.715H64.9077V818.8H63.4182V808.528H64.9414V811.036C64.9414 811.328 64.9347 811.604 64.9212 811.865C64.9122 812.125 64.901 812.343 64.8875 812.518H64.9347C65.0964 812.262 65.2919 812.035 65.521 811.838C65.7502 811.64 66.0108 811.485 66.3028 811.373C66.5949 811.26 66.9184 811.204 67.2734 811.204C67.8979 811.204 68.4461 811.364 68.9179 811.683C69.3941 811.997 69.7648 812.446 70.0299 813.031C70.2995 813.61 70.4343 814.298 70.4343 815.093C70.4343 815.893 70.304 816.585 70.0434 817.169C69.7873 817.753 69.4211 818.204 68.9448 818.523C68.473 818.838 67.9069 818.995 67.2464 818.995ZM66.9835 817.755C67.4104 817.755 67.7631 817.641 68.0417 817.411C68.3248 817.182 68.5337 816.87 68.6685 816.475C68.8078 816.075 68.8774 815.616 68.8774 815.1C68.8774 814.587 68.8078 814.129 68.6685 813.725C68.5292 813.32 68.3203 813.004 68.0417 812.774C67.7676 812.541 67.4171 812.424 66.9903 812.424C66.5095 812.424 66.1119 812.545 65.7973 812.788C65.4828 813.026 65.2492 813.347 65.0964 813.752C64.9436 814.156 64.8673 814.608 64.8673 815.106C64.8673 815.614 64.9459 816.068 65.1031 816.468C65.2649 816.863 65.503 817.178 65.8176 817.411C66.1321 817.641 66.5207 817.755 66.9835 817.755ZM71.7216 818.8V811.386H73.2448V818.8H71.7216ZM71.7014 810.105V808.508H73.2718V810.105H71.7014ZM77.4841 818.86C77.1202 818.86 76.7989 818.809 76.5203 818.705C76.2418 818.602 76.0238 818.434 75.8666 818.2C75.7138 817.962 75.6374 817.643 75.6374 817.243V812.491H74.4849V811.386H75.6374V809.047H77.1337V811.386H78.6434V812.491H77.1337V816.899C77.1337 817.173 77.2033 817.357 77.3426 817.452C77.4819 817.546 77.6728 817.593 77.9155 817.593C78.0143 817.593 78.1222 817.584 78.239 817.566C78.3558 817.548 78.4502 817.533 78.5221 817.519H78.576V818.746C78.4232 818.777 78.2525 818.804 78.0637 818.827C77.8795 818.849 77.6863 818.86 77.4841 818.86ZM79.9172 818.8V811.386H81.4404V818.8H79.9172ZM79.897 810.105V808.508H81.4673V810.105H79.897ZM86.4413 819.002C85.6909 819.002 85.0372 818.829 84.48 818.483C83.9274 818.133 83.5005 817.663 83.1995 817.074C82.8984 816.481 82.7479 815.821 82.7479 815.093C82.7479 814.37 82.8984 813.716 83.1995 813.132C83.5005 812.543 83.9274 812.076 84.48 811.73C85.0372 811.379 85.6909 811.204 86.4413 811.204C87.1962 811.204 87.8477 811.379 88.3958 811.73C88.9485 812.076 89.3731 812.543 89.6697 813.132C89.9662 813.716 90.1145 814.37 90.1145 815.093C90.1145 815.821 89.9662 816.481 89.6697 817.074C89.3731 817.663 88.9485 818.133 88.3958 818.483C87.8477 818.829 87.1962 819.002 86.4413 819.002ZM86.4278 817.809C86.8951 817.809 87.2883 817.69 87.6073 817.452C87.9263 817.214 88.1667 816.89 88.3284 816.481C88.4902 816.072 88.5711 815.61 88.5711 815.093C88.5711 814.576 88.4902 814.113 88.3284 813.705C88.1667 813.291 87.9263 812.965 87.6073 812.727C87.2883 812.485 86.8951 812.363 86.4278 812.363C85.9605 812.363 85.5674 812.485 85.2484 812.727C84.9293 812.965 84.689 813.291 84.5272 813.705C84.3654 814.113 84.2846 814.576 84.2846 815.093C84.2846 815.61 84.3654 816.072 84.5272 816.481C84.689 816.89 84.9293 817.214 85.2484 817.452C85.5674 817.69 85.9605 817.809 86.4278 817.809ZM91.4018 818.8V811.386H92.8913V812.458H92.9384C93.1137 812.193 93.3136 811.968 93.5383 811.784C93.7629 811.599 94.0191 811.458 94.3066 811.359C94.5942 811.256 94.9155 811.204 95.2704 811.204C95.7961 811.204 96.2454 811.303 96.6184 811.501C96.9913 811.698 97.2789 811.984 97.4811 812.357C97.6833 812.73 97.7844 813.179 97.7844 813.705V818.8H96.2746V813.927C96.2746 813.469 96.1398 813.111 95.8703 812.855C95.6052 812.599 95.2322 812.471 94.7515 812.471C94.3965 812.471 94.0797 812.552 93.8011 812.714C93.5271 812.871 93.3114 813.093 93.1541 813.381C93.0014 813.669 92.925 813.999 92.925 814.372V818.8H91.4018Z" fill="white"/>
<path d="M522.072 804.8V794.668H526.832C527.453 794.668 527.998 794.784 528.468 795.014C528.942 795.244 529.312 795.572 529.578 795.998C529.844 796.419 529.977 796.915 529.977 797.487C529.977 798.099 529.835 798.619 529.551 799.049C529.268 799.479 528.791 799.798 528.122 800.007V800.047C528.494 800.153 528.787 800.301 529 800.492C529.217 800.678 529.376 800.924 529.478 801.23C529.585 801.536 529.656 801.919 529.691 802.38C529.722 802.73 529.751 803.043 529.777 803.317C529.808 803.588 529.839 803.823 529.87 804.022C529.906 804.221 529.946 804.379 529.99 804.494C530.034 804.609 530.088 804.685 530.15 804.72V804.8H528.454C528.375 804.738 528.315 804.623 528.275 804.454C528.235 804.286 528.204 804.044 528.182 803.729C528.16 803.415 528.126 803.009 528.082 802.513C528.038 801.853 527.861 801.381 527.55 801.097C527.245 800.813 526.775 800.671 526.141 800.671H523.708V804.8H522.072ZM523.708 799.395H526.387C527.025 799.395 527.506 799.244 527.83 798.943C528.153 798.642 528.315 798.236 528.315 797.726C528.315 797.177 528.169 796.758 527.876 796.47C527.588 796.182 527.114 796.038 526.453 796.038H523.708V799.395ZM534.69 804.999C533.95 804.999 533.305 804.829 532.756 804.487C532.211 804.142 531.789 803.679 531.493 803.098C531.196 802.513 531.047 801.861 531.047 801.143C531.047 800.43 531.196 799.785 531.493 799.209C531.789 798.628 532.211 798.167 532.756 797.826C533.305 797.48 533.95 797.308 534.69 797.308C535.435 797.308 536.077 797.48 536.618 797.826C537.163 798.167 537.582 798.628 537.875 799.209C538.167 799.785 538.313 800.43 538.313 801.143C538.313 801.861 538.167 802.513 537.875 803.098C537.582 803.679 537.163 804.142 536.618 804.487C536.077 804.829 535.435 804.999 534.69 804.999ZM534.677 803.823C535.138 803.823 535.526 803.705 535.84 803.47C536.155 803.235 536.392 802.916 536.552 802.513C536.711 802.11 536.791 801.653 536.791 801.143C536.791 800.634 536.711 800.177 536.552 799.774C536.392 799.366 536.155 799.045 535.84 798.81C535.526 798.571 535.138 798.451 534.677 798.451C534.216 798.451 533.828 798.571 533.514 798.81C533.199 799.045 532.962 799.366 532.802 799.774C532.643 800.177 532.563 800.634 532.563 801.143C532.563 801.653 532.643 802.11 532.802 802.513C532.962 802.916 533.199 803.235 533.514 803.47C533.828 803.705 534.216 803.823 534.677 803.823ZM542.867 804.999C542.127 804.999 541.482 804.829 540.933 804.487C540.388 804.142 539.966 803.679 539.67 803.098C539.373 802.513 539.224 801.861 539.224 801.143C539.224 800.43 539.373 799.785 539.67 799.209C539.966 798.628 540.388 798.167 540.933 797.826C541.482 797.48 542.127 797.308 542.867 797.308C543.612 797.308 544.254 797.48 544.795 797.826C545.34 798.167 545.759 798.628 546.052 799.209C546.344 799.785 546.49 800.43 546.49 801.143C546.49 801.861 546.344 802.513 546.052 803.098C545.759 803.679 545.34 804.142 544.795 804.487C544.254 804.829 543.612 804.999 542.867 804.999ZM542.854 803.823C543.315 803.823 543.703 803.705 544.017 803.47C544.332 803.235 544.569 802.916 544.729 802.513C544.888 802.11 544.968 801.653 544.968 801.143C544.968 800.634 544.888 800.177 544.729 799.774C544.569 799.366 544.332 799.045 544.017 798.81C543.703 798.571 543.315 798.451 542.854 798.451C542.393 798.451 542.005 798.571 541.691 798.81C541.376 799.045 541.139 799.366 540.979 799.774C540.82 800.177 540.74 800.634 540.74 801.143C540.74 801.653 540.82 802.11 540.979 802.513C541.139 802.916 541.376 803.235 541.691 803.47C542.005 803.705 542.393 803.823 542.854 803.823ZM547.747 804.8V797.487H549.216V798.591H549.263C549.418 798.32 549.602 798.09 549.814 797.899C550.032 797.704 550.275 797.558 550.546 797.46C550.82 797.359 551.117 797.308 551.436 797.308C551.889 797.308 552.281 797.423 552.613 797.653C552.95 797.884 553.198 798.223 553.358 798.67H553.384C553.659 798.205 553.996 797.862 554.395 797.64C554.794 797.418 555.217 797.308 555.665 797.308C556.134 797.308 556.542 797.405 556.888 797.6C557.233 797.795 557.499 798.076 557.686 798.444C557.876 798.808 557.971 799.249 557.971 799.767V804.8H556.476V799.94C556.476 799.506 556.356 799.167 556.117 798.923C555.882 798.675 555.583 798.551 555.219 798.551C554.927 798.551 554.658 798.63 554.415 798.79C554.171 798.945 553.976 799.16 553.83 799.435C553.688 799.71 553.617 800.024 553.617 800.379V804.8H552.121V799.94C552.121 799.506 552.013 799.167 551.795 798.923C551.583 798.675 551.29 798.551 550.918 798.551C550.643 798.551 550.377 798.63 550.12 798.79C549.863 798.945 549.655 799.16 549.495 799.435C549.336 799.71 549.256 800.024 549.256 800.379V804.8H547.747ZM521.587 818.8C521.609 818.21 521.707 817.703 521.88 817.277C522.057 816.848 522.303 816.464 522.618 816.127C522.932 815.786 523.311 815.46 523.754 815.15C524.202 814.84 524.705 814.51 525.263 814.16C525.671 813.911 526.01 813.683 526.281 813.475C526.551 813.262 526.753 813.038 526.886 812.803C527.023 812.564 527.092 812.276 527.092 811.939C527.092 811.421 526.928 811 526.6 810.676C526.272 810.348 525.824 810.184 525.257 810.184C524.831 810.184 524.477 810.275 524.193 810.457C523.909 810.634 523.697 810.889 523.555 811.221C523.413 811.549 523.342 811.937 523.342 812.385H521.8C521.8 811.644 521.946 811.017 522.239 810.503C522.536 809.985 522.948 809.59 523.475 809.32C524.007 809.045 524.634 808.908 525.356 808.908C526.043 808.908 526.635 809.041 527.131 809.307C527.632 809.568 528.016 809.925 528.282 810.377C528.552 810.824 528.687 811.334 528.687 811.906C528.687 812.473 528.576 812.945 528.355 813.322C528.133 813.699 527.832 814.027 527.451 814.306C527.069 814.581 526.637 814.86 526.154 815.143C525.565 815.511 525.097 815.817 524.752 816.061C524.41 816.3 524.151 816.522 523.974 816.726C523.801 816.93 523.661 817.16 523.555 817.417H528.554V818.8H521.587ZM529.964 818.8V817.111H531.645V818.8H529.964ZM532.802 818.8L536.492 808.668H538.267L541.983 818.8H540.215L539.304 816.114H535.402L534.471 818.8H532.802ZM535.82 814.878H538.892L538.021 812.291C537.897 811.928 537.788 811.571 537.695 811.221C537.602 810.867 537.529 810.574 537.476 810.344C537.423 810.113 537.396 809.998 537.396 809.998H537.356C537.356 809.998 537.338 810.071 537.303 810.217C537.272 810.364 537.225 810.554 537.163 810.789C537.101 811.019 537.03 811.27 536.951 811.54C536.875 811.806 536.798 812.057 536.718 812.291L535.82 814.878ZM546.796 818.993C545.99 818.993 545.294 818.787 544.709 818.374C544.124 817.962 543.672 817.379 543.353 816.626C543.038 815.868 542.881 814.975 542.881 813.947C542.881 812.914 543.042 812.023 543.366 811.274C543.694 810.521 544.152 809.94 544.742 809.533C545.331 809.12 546.021 808.914 546.809 808.914C547.603 808.914 548.292 809.118 548.877 809.526C549.466 809.929 549.921 810.508 550.24 811.261C550.563 812.01 550.725 812.905 550.725 813.947C550.725 814.975 550.568 815.868 550.253 816.626C549.943 817.379 549.495 817.962 548.91 818.374C548.325 818.787 547.621 818.993 546.796 818.993ZM546.809 817.71C547.346 817.71 547.782 817.557 548.119 817.251C548.46 816.945 548.713 816.511 548.877 815.948C549.041 815.385 549.123 814.718 549.123 813.947C549.123 813.189 549.039 812.529 548.87 811.966C548.706 811.398 548.452 810.96 548.106 810.649C547.765 810.339 547.332 810.184 546.809 810.184C546.282 810.184 545.843 810.339 545.493 810.649C545.147 810.955 544.89 811.39 544.722 811.952C544.554 812.515 544.469 813.18 544.469 813.947C544.469 814.705 544.554 815.367 544.722 815.935C544.89 816.497 545.147 816.934 545.493 817.244C545.843 817.554 546.282 817.71 546.809 817.71ZM555.392 818.999C554.696 818.999 554.082 818.877 553.551 818.634C553.023 818.385 552.602 818.046 552.287 817.616C551.973 817.187 551.793 816.701 551.749 816.161H553.278C553.344 816.462 553.462 816.728 553.63 816.958C553.803 817.189 554.031 817.37 554.315 817.503C554.599 817.632 554.944 817.696 555.352 817.696C555.773 817.696 556.139 817.61 556.449 817.437C556.759 817.26 556.999 817.014 557.167 816.699C557.34 816.38 557.426 816.01 557.426 815.589C557.426 815.15 557.335 814.776 557.154 814.465C556.976 814.155 556.737 813.918 556.436 813.754C556.139 813.586 555.806 813.501 555.439 813.501C555.115 813.501 554.827 813.541 554.574 813.621C554.322 813.696 554.104 813.798 553.923 813.927C553.746 814.051 553.597 814.186 553.477 814.332H552.002L553.045 809.107H558.41V810.417H554.142L553.57 813.109H553.597C553.859 812.839 554.164 812.63 554.514 812.484C554.865 812.334 555.286 812.258 555.778 812.258C556.336 812.258 556.859 812.391 557.346 812.657C557.838 812.923 558.235 813.306 558.536 813.807C558.842 814.304 558.995 814.904 558.995 815.609C558.995 816.305 558.838 816.905 558.523 817.41C558.213 817.916 557.785 818.308 557.24 818.587C556.699 818.862 556.083 818.999 555.392 818.999Z" fill="white"/>
<path d="M437.625 805.199C436.929 805.199 436.315 805.078 435.783 804.834C435.256 804.586 434.835 804.247 434.52 803.817C434.206 803.387 434.026 802.901 433.982 802.361H435.511C435.577 802.662 435.695 802.928 435.863 803.159C436.036 803.389 436.264 803.571 436.548 803.704C436.832 803.832 437.177 803.896 437.585 803.896C438.006 803.896 438.372 803.81 438.682 803.637C438.992 803.46 439.232 803.214 439.4 802.899C439.573 802.58 439.659 802.21 439.659 801.789C439.659 801.35 439.568 800.976 439.387 800.666C439.209 800.355 438.97 800.118 438.669 799.954C438.372 799.786 438.039 799.702 437.672 799.702C437.348 799.702 437.06 799.741 436.807 799.821C436.555 799.897 436.337 799.999 436.156 800.127C435.978 800.251 435.83 800.386 435.71 800.533H434.235L435.278 795.307H440.643V796.617H436.375L435.803 799.309H435.83C436.092 799.039 436.397 798.831 436.747 798.684C437.098 798.534 437.519 798.458 438.011 798.458C438.569 798.458 439.092 798.591 439.579 798.857C440.071 799.123 440.468 799.507 440.769 800.007C441.075 800.504 441.228 801.104 441.228 801.809C441.228 802.505 441.071 803.105 440.756 803.611C440.446 804.116 440.018 804.508 439.473 804.787C438.932 805.062 438.316 805.199 437.625 805.199ZM446.294 805V794.869H448.441L450.323 800.034C450.429 800.322 450.538 800.652 450.648 801.025C450.759 801.397 450.861 801.758 450.954 802.108C451.052 802.458 451.129 802.749 451.187 802.979C451.249 803.205 451.28 803.318 451.28 803.318H451.313C451.313 803.318 451.342 803.205 451.4 802.979C451.462 802.753 451.541 802.465 451.639 802.115C451.736 801.76 451.841 801.397 451.951 801.025C452.062 800.652 452.169 800.322 452.27 800.034L454.119 794.869H456.319V805H454.77V799.296C454.77 799.043 454.775 798.755 454.783 798.432C454.797 798.104 454.81 797.787 454.823 797.481C454.837 797.171 454.848 796.916 454.856 796.717C454.865 796.517 454.87 796.417 454.87 796.417H454.843C454.843 796.417 454.821 796.508 454.777 796.69C454.732 796.872 454.673 797.102 454.597 797.381C454.526 797.656 454.449 797.94 454.365 798.232C454.28 798.525 454.198 798.784 454.119 799.01L451.925 805H450.615L448.428 799.01C448.348 798.784 448.266 798.525 448.182 798.232C448.098 797.94 448.018 797.656 447.943 797.381C447.867 797.102 447.805 796.872 447.756 796.69C447.712 796.508 447.69 796.417 447.69 796.417H447.663C447.663 796.417 447.668 796.517 447.677 796.717C447.69 796.916 447.703 797.171 447.717 797.481C447.73 797.787 447.741 798.104 447.75 798.432C447.759 798.755 447.763 799.043 447.763 799.296V805H446.294ZM460.308 805.16C459.847 805.16 459.428 805.082 459.051 804.927C458.675 804.767 458.375 804.53 458.154 804.216C457.937 803.901 457.828 803.511 457.828 803.045C457.828 802.487 457.957 802.059 458.214 801.762C458.475 801.461 458.834 801.239 459.291 801.098C459.752 800.956 460.283 800.847 460.886 800.772C461.267 800.728 461.591 800.672 461.857 800.606C462.123 800.539 462.327 800.439 462.468 800.307C462.61 800.169 462.681 799.985 462.681 799.755C462.681 799.396 462.557 799.112 462.309 798.904C462.065 798.691 461.711 798.585 461.245 798.585C460.713 798.585 460.314 798.702 460.049 798.937C459.787 799.168 459.645 799.482 459.623 799.881H458.194C458.216 799.464 458.338 799.079 458.559 798.724C458.785 798.365 459.118 798.077 459.557 797.86C460 797.638 460.558 797.528 461.232 797.528C461.609 797.528 461.952 797.559 462.262 797.621C462.573 797.683 462.845 797.785 463.08 797.927C463.404 798.117 463.652 798.383 463.825 798.724C464.002 799.061 464.091 799.473 464.091 799.961V803.212C464.091 803.469 464.128 803.664 464.204 803.797C464.279 803.93 464.412 803.996 464.602 803.996C464.647 803.996 464.689 803.994 464.729 803.99C464.773 803.981 464.811 803.97 464.842 803.956H464.882V804.993C464.789 805.02 464.676 805.047 464.543 805.073C464.414 805.1 464.263 805.113 464.091 805.113C463.82 805.113 463.581 805.06 463.373 804.953C463.164 804.847 463.002 804.681 462.887 804.455C462.772 804.229 462.714 803.936 462.714 803.577V803.458L462.874 803.963H462.728C462.511 804.286 462.205 804.568 461.81 804.807C461.42 805.042 460.919 805.16 460.308 805.16ZM460.72 804.103C461.163 804.103 461.531 804.012 461.824 803.83C462.116 803.648 462.335 803.422 462.482 803.152C462.628 802.877 462.701 802.602 462.701 802.328V801.197C462.59 801.268 462.451 801.335 462.282 801.397C462.118 801.459 461.941 801.514 461.75 801.563C461.564 801.612 461.378 801.654 461.192 801.689C460.815 801.756 460.49 801.836 460.215 801.929C459.944 802.017 459.734 802.146 459.583 802.314C459.437 802.478 459.364 802.713 459.364 803.019C459.364 803.303 459.428 803.524 459.557 803.684C459.685 803.839 459.854 803.947 460.062 804.009C460.27 804.072 460.49 804.103 460.72 804.103ZM466.856 807.526C466.723 807.526 466.575 807.52 466.411 807.506C466.251 807.497 466.103 807.482 465.965 807.46C465.832 807.442 465.739 807.422 465.686 807.4V806.163H465.746C465.817 806.186 465.923 806.208 466.065 806.23C466.211 806.252 466.357 806.263 466.504 806.263C466.681 806.263 466.834 806.237 466.962 806.183C467.095 806.135 467.211 806.048 467.308 805.924C467.406 805.8 467.494 805.632 467.574 805.419L467.833 804.747L465.015 797.687H466.623L467.98 801.417C468.059 801.629 468.135 801.86 468.206 802.108C468.281 802.352 468.347 802.582 468.405 802.8C468.467 803.017 468.514 803.194 468.545 803.331C468.58 803.464 468.598 803.531 468.598 803.531H468.624C468.624 803.531 468.642 803.462 468.678 803.325C468.718 803.187 468.768 803.012 468.831 802.8C468.893 802.582 468.959 802.352 469.03 802.108C469.105 801.86 469.178 801.629 469.249 801.417L470.559 797.687H472.095L469.123 805.532C468.928 806.059 468.722 806.467 468.505 806.755C468.292 807.043 468.053 807.243 467.787 807.353C467.521 807.469 467.211 807.526 466.856 807.526ZM476.203 805C476.225 804.411 476.323 803.903 476.496 803.478C476.673 803.048 476.919 802.664 477.234 802.328C477.548 801.986 477.927 801.661 478.37 801.35C478.818 801.04 479.321 800.71 479.879 800.36C480.287 800.112 480.626 799.883 480.897 799.675C481.167 799.462 481.369 799.238 481.502 799.004C481.639 798.764 481.708 798.476 481.708 798.139C481.708 797.621 481.544 797.2 481.216 796.876C480.888 796.548 480.44 796.384 479.873 796.384C479.447 796.384 479.093 796.475 478.809 796.657C478.525 796.834 478.313 797.089 478.171 797.421C478.029 797.749 477.958 798.137 477.958 798.585H476.416C476.416 797.845 476.562 797.217 476.855 796.703C477.152 796.185 477.564 795.79 478.091 795.52C478.623 795.245 479.25 795.108 479.973 795.108C480.659 795.108 481.251 795.241 481.748 795.507C482.248 795.768 482.632 796.125 482.898 796.577C483.168 797.025 483.303 797.534 483.303 798.106C483.303 798.673 483.192 799.145 482.971 799.522C482.749 799.899 482.448 800.227 482.067 800.506C481.685 800.781 481.253 801.06 480.77 801.344C480.181 801.711 479.713 802.017 479.368 802.261C479.026 802.5 478.767 802.722 478.59 802.926C478.417 803.13 478.277 803.36 478.171 803.617H483.17V805H476.203ZM488.475 805.193C487.669 805.193 486.973 804.987 486.388 804.575C485.803 804.162 485.351 803.58 485.032 802.826C484.717 802.068 484.56 801.175 484.56 800.147C484.56 799.114 484.721 798.224 485.045 797.475C485.373 796.721 485.832 796.14 486.421 795.733C487.01 795.321 487.7 795.114 488.489 795.114C489.282 795.114 489.971 795.318 490.556 795.726C491.146 796.129 491.6 796.708 491.919 797.461C492.242 798.21 492.404 799.105 492.404 800.147C492.404 801.175 492.247 802.068 491.932 802.826C491.622 803.58 491.174 804.162 490.589 804.575C490.004 804.987 489.3 805.193 488.475 805.193ZM488.489 803.91C489.025 803.91 489.461 803.757 489.798 803.451C490.139 803.145 490.392 802.711 490.556 802.148C490.72 801.585 490.802 800.918 490.802 800.147C490.802 799.389 490.718 798.729 490.549 798.166C490.385 797.599 490.131 797.16 489.785 796.85C489.444 796.539 489.012 796.384 488.489 796.384C487.961 796.384 487.522 796.539 487.172 796.85C486.827 797.155 486.569 797.59 486.401 798.153C486.233 798.715 486.148 799.38 486.148 800.147C486.148 800.905 486.233 801.567 486.401 802.135C486.569 802.698 486.827 803.134 487.172 803.444C487.522 803.755 487.961 803.91 488.489 803.91ZM493.501 805C493.523 804.411 493.621 803.903 493.794 803.478C493.971 803.048 494.217 802.664 494.532 802.328C494.846 801.986 495.225 801.661 495.668 801.35C496.116 801.04 496.619 800.71 497.177 800.36C497.585 800.112 497.924 799.883 498.195 799.675C498.465 799.462 498.667 799.238 498.8 799.004C498.937 798.764 499.006 798.476 499.006 798.139C499.006 797.621 498.842 797.2 498.514 796.876C498.186 796.548 497.738 796.384 497.171 796.384C496.745 796.384 496.391 796.475 496.107 796.657C495.823 796.834 495.611 797.089 495.469 797.421C495.327 797.749 495.256 798.137 495.256 798.585H493.714C493.714 797.845 493.86 797.217 494.153 796.703C494.45 796.185 494.862 795.79 495.389 795.52C495.921 795.245 496.548 795.108 497.271 795.108C497.957 795.108 498.549 795.241 499.046 795.507C499.546 795.768 499.93 796.125 500.196 796.577C500.466 797.025 500.601 797.534 500.601 798.106C500.601 798.673 500.49 799.145 500.269 799.522C500.047 799.899 499.746 800.227 499.365 800.506C498.983 800.781 498.551 801.06 498.068 801.344C497.479 801.711 497.011 802.017 496.666 802.261C496.324 802.5 496.065 802.722 495.888 802.926C495.715 803.13 495.575 803.36 495.469 803.617H500.468V805H493.501ZM505.221 805.199C504.526 805.199 503.912 805.078 503.38 804.834C502.853 804.586 502.432 804.247 502.117 803.817C501.802 803.387 501.623 802.901 501.578 802.361H503.107C503.174 802.662 503.291 802.928 503.46 803.159C503.633 803.389 503.861 803.571 504.145 803.704C504.428 803.832 504.774 803.896 505.182 803.896C505.603 803.896 505.968 803.81 506.279 803.637C506.589 803.46 506.828 803.214 506.996 802.899C507.169 802.58 507.256 802.21 507.256 801.789C507.256 801.35 507.165 800.976 506.983 800.666C506.806 800.355 506.567 800.118 506.265 799.954C505.968 799.786 505.636 799.702 505.268 799.702C504.944 799.702 504.656 799.741 504.404 799.821C504.151 799.897 503.934 799.999 503.752 800.127C503.575 800.251 503.427 800.386 503.307 800.533H501.831L502.875 795.307H508.24V796.617H503.972L503.4 799.309H503.427C503.688 799.039 503.994 798.831 504.344 798.684C504.694 798.534 505.115 798.458 505.607 798.458C506.165 798.458 506.688 798.591 507.176 798.857C507.668 799.123 508.065 799.507 508.366 800.007C508.672 800.504 508.825 801.104 508.825 801.809C508.825 802.505 508.667 803.105 508.353 803.611C508.042 804.116 507.615 804.508 507.07 804.787C506.529 805.062 505.913 805.199 505.221 805.199ZM436.375 819V812.266H434.128V811.229C434.554 811.22 434.95 811.153 435.318 811.029C435.69 810.901 436.001 810.697 436.249 810.417C436.497 810.138 436.654 809.768 436.721 809.307H437.937V819H436.375ZM444.373 819V816.687H439.712V815.304L444.526 809.254H445.875V815.503H447.424V816.687H445.875V819H444.373ZM440.889 815.563C440.889 815.563 440.969 815.559 441.128 815.55C441.292 815.541 441.485 815.532 441.707 815.523C441.928 815.51 442.132 815.503 442.318 815.503H444.373V812.518C444.373 812.341 444.377 812.139 444.386 811.913C444.399 811.687 444.41 811.492 444.419 811.328C444.432 811.16 444.439 811.076 444.439 811.076H444.413C444.413 811.076 444.366 811.149 444.273 811.295C444.18 811.437 444.065 811.61 443.927 811.814C443.79 812.013 443.652 812.197 443.515 812.365L441.939 814.333C441.811 814.493 441.665 814.668 441.501 814.858C441.337 815.044 441.193 815.204 441.069 815.337C440.949 815.47 440.889 815.536 440.889 815.536V815.563ZM448.481 814.679V812.99H450.163V814.679H448.481ZM448.481 819V817.311H450.163V819H448.481ZM455.528 819.193C454.721 819.193 454.025 818.987 453.44 818.575C452.855 818.162 452.403 817.58 452.084 816.826C451.77 816.068 451.612 815.175 451.612 814.147C451.612 813.114 451.774 812.224 452.098 811.475C452.426 810.721 452.884 810.14 453.474 809.733C454.063 809.321 454.752 809.114 455.541 809.114C456.335 809.114 457.024 809.318 457.609 809.726C458.198 810.129 458.652 810.708 458.972 811.461C459.295 812.21 459.457 813.105 459.457 814.147C459.457 815.175 459.3 816.068 458.985 816.826C458.675 817.58 458.227 818.162 457.642 818.575C457.057 818.987 456.352 819.193 455.528 819.193ZM455.541 817.91C456.078 817.91 456.514 817.757 456.851 817.451C457.192 817.145 457.445 816.711 457.609 816.148C457.773 815.585 457.855 814.918 457.855 814.147C457.855 813.389 457.771 812.729 457.602 812.166C457.438 811.599 457.183 811.16 456.838 810.85C456.496 810.539 456.064 810.384 455.541 810.384C455.014 810.384 454.575 810.539 454.225 810.85C453.879 811.155 453.622 811.59 453.454 812.153C453.285 812.715 453.201 813.38 453.201 814.147C453.201 814.905 453.285 815.567 453.454 816.135C453.622 816.698 453.879 817.134 454.225 817.444C454.575 817.755 455.014 817.91 455.541 817.91ZM464.702 819.193C463.896 819.193 463.2 818.987 462.615 818.575C462.03 818.162 461.578 817.58 461.258 816.826C460.944 816.068 460.786 815.175 460.786 814.147C460.786 813.114 460.948 812.224 461.272 811.475C461.6 810.721 462.058 810.14 462.648 809.733C463.237 809.321 463.927 809.114 464.715 809.114C465.509 809.114 466.198 809.318 466.783 809.726C467.372 810.129 467.827 810.708 468.146 811.461C468.469 812.21 468.631 813.105 468.631 814.147C468.631 815.175 468.474 816.068 468.159 816.826C467.849 817.58 467.401 818.162 466.816 818.575C466.231 818.987 465.526 819.193 464.702 819.193ZM464.715 817.91C465.252 817.91 465.688 817.757 466.025 817.451C466.366 817.145 466.619 816.711 466.783 816.148C466.947 815.585 467.029 814.918 467.029 814.147C467.029 813.389 466.945 812.729 466.776 812.166C466.612 811.599 466.357 811.16 466.012 810.85C465.671 810.539 465.238 810.384 464.715 810.384C464.188 810.384 463.749 810.539 463.399 810.85C463.053 811.155 462.796 811.59 462.628 812.153C462.46 812.715 462.375 813.38 462.375 814.147C462.375 814.905 462.46 815.567 462.628 816.135C462.796 816.698 463.053 817.134 463.399 817.444C463.749 817.755 464.188 817.91 464.715 817.91ZM469.336 816.035V814.745H476.143V816.035H469.336ZM478.935 819V812.266H476.688V811.229C477.114 811.22 477.511 811.153 477.878 811.029C478.251 810.901 478.561 810.697 478.809 810.417C479.057 810.138 479.215 809.768 479.281 809.307H480.498V819H478.935ZM483.443 819C483.491 818.14 483.631 817.303 483.862 816.487C484.096 815.667 484.398 814.892 484.766 814.16C485.134 813.425 485.55 812.755 486.016 812.153C486.481 811.55 486.968 811.04 487.478 810.624V810.597C487.478 810.597 487.389 810.601 487.212 810.61C487.035 810.619 486.8 810.63 486.507 810.644C486.215 810.652 485.896 810.657 485.55 810.657H482.087V809.307H488.987V810.53C488.508 810.965 488.045 811.477 487.598 812.066C487.15 812.656 486.745 813.312 486.381 814.034C486.018 814.752 485.721 815.53 485.49 816.367C485.26 817.201 485.125 818.078 485.085 819H483.443ZM489.685 814.679V812.99H491.367V814.679H489.685ZM489.685 819V817.311H491.367V819H489.685ZM496.732 819.193C495.925 819.193 495.23 818.987 494.645 818.575C494.06 818.162 493.607 817.58 493.288 816.826C492.974 816.068 492.816 815.175 492.816 814.147C492.816 813.114 492.978 812.224 493.302 811.475C493.63 810.721 494.088 810.14 494.678 809.733C495.267 809.321 495.956 809.114 496.745 809.114C497.539 809.114 498.228 809.318 498.813 809.726C499.402 810.129 499.857 810.708 500.176 811.461C500.499 812.21 500.661 813.105 500.661 814.147C500.661 815.175 500.504 816.068 500.189 816.826C499.879 817.58 499.431 818.162 498.846 818.575C498.261 818.987 497.556 819.193 496.732 819.193ZM496.745 817.91C497.282 817.91 497.718 817.757 498.055 817.451C498.396 817.145 498.649 816.711 498.813 816.148C498.977 815.585 499.059 814.918 499.059 814.147C499.059 813.389 498.975 812.729 498.806 812.166C498.642 811.599 498.387 811.16 498.042 810.85C497.7 810.539 497.268 810.384 496.745 810.384C496.218 810.384 495.779 810.539 495.429 810.85C495.083 811.155 494.826 811.59 494.658 812.153C494.489 812.715 494.405 813.38 494.405 814.147C494.405 814.905 494.489 815.567 494.658 816.135C494.826 816.698 495.083 817.134 495.429 817.444C495.779 817.755 496.218 817.91 496.745 817.91ZM505.906 819.193C505.1 819.193 504.404 818.987 503.819 818.575C503.234 818.162 502.782 817.58 502.463 816.826C502.148 816.068 501.991 815.175 501.991 814.147C501.991 813.114 502.152 812.224 502.476 811.475C502.804 810.721 503.263 810.14 503.852 809.733C504.441 809.321 505.131 809.114 505.92 809.114C506.713 809.114 507.402 809.318 507.987 809.726C508.576 810.129 509.031 810.708 509.35 811.461C509.673 812.21 509.835 813.105 509.835 814.147C509.835 815.175 509.678 816.068 509.363 816.826C509.053 817.58 508.605 818.162 508.02 818.575C507.435 818.987 506.731 819.193 505.906 819.193ZM505.92 817.91C506.456 817.91 506.892 817.757 507.229 817.451C507.57 817.145 507.823 816.711 507.987 816.148C508.151 815.585 508.233 814.918 508.233 814.147C508.233 813.389 508.149 812.729 507.98 812.166C507.816 811.599 507.562 811.16 507.216 810.85C506.875 810.539 506.442 810.384 505.92 810.384C505.392 810.384 504.953 810.539 504.603 810.85C504.258 811.155 504 811.59 503.832 812.153C503.664 812.715 503.579 813.38 503.579 814.147C503.579 814.905 503.664 815.567 503.832 816.135C504 816.698 504.258 817.134 504.603 817.444C504.953 817.755 505.392 817.91 505.92 817.91Z" fill="white"/>
</svg>
