<svg xmlns="http://www.w3.org/2000/svg" viewBox="0 -0.5 16 16" shape-rendering="crispEdges">
<metadata>Made with Pixels to Svg https://codepen.io/shshaw/pen/XbxvNj</metadata>
<path stroke="#000000" d="M10 0h3M9 1h1M13 1h1M9 2h1M13 2h1M8 3h2M12 3h1M8 4h1M10 4h3M7 5h1M11 5h1M7 6h1M10 6h2M6 7h1M10 7h1M6 8h1M9 8h2M5 9h1M9 9h1M5 10h2M8 10h2M5 11h4M5 12h3M5 13h2M5 14h1" />
<path stroke="#bf0000" d="M10 1h3M10 2h1M10 3h1" />
<path stroke="#ffffff" d="M11 2h2M11 3h1M9 5h1M8 6h1M7 7h1M8 8h1M7 9h1" />
<path stroke="#ffff00" d="M9 4h1M8 5h1M9 6h1M8 7h1M7 8h1M6 9h1M7 10h1" />
<path stroke="#c0c0c0" d="M10 5h1M9 7h1M8 9h1" />
</svg>